<svg width="1438" height="143" viewBox="0 0 1438 143" fill="none" xmlns="http://www.w3.org/2000/svg">
<path d="M130.495 15.9406C116.572 15.9406 110.513 23.85 110.191 27.853C109.868 23.8499 103.809 15.9406 89.8861 15.9406M1348.77 15.9406C1334.84 15.9406 1328.79 23.85 1328.46 27.853C1328.14 23.8499 1322.08 15.9406 1308.16 15.9406M1145.72 126.13C1131.8 126.13 1125.74 118.221 1125.42 114.218C1125.1 118.221 1119.04 126.13 1105.11 126.13M942.677 15.9406C928.754 15.9406 922.694 23.85 922.372 27.853C922.05 23.8499 915.991 15.9406 902.068 15.9406M739.632 126.13C725.708 126.13 719.649 118.221 719.327 114.218C719.004 118.221 712.946 126.13 699.022 126.13M536.586 15.9406C522.663 15.9406 516.604 23.85 516.281 27.853C515.959 23.8499 509.9 15.9406 495.977 15.9406M333.541 126.13C319.618 126.13 313.558 118.221 313.236 114.218C312.914 118.221 306.855 126.13 292.931 126.13M110.191 56.9723C132.429 28.9507 203.011 25.9483 204.945 70.9831C205.745 89.6092 187.028 102.655 170.137 101.006C146.189 98.6691 135.33 67.9807 170.137 60.9753C133.396 46.9645 115.025 82.9923 140.164 104.009C165.303 125.025 200.111 111.014 211.713 91.9993C241.687 133.031 287.13 118.791 313.236 105.114C339.342 118.791 384.785 133.136 414.759 92.1042C426.361 111.119 461.169 125.025 486.308 104.009C511.447 82.9923 493.076 46.9645 456.335 60.9753C491.143 67.9807 480.283 98.6691 456.335 101.006C439.444 102.655 420.727 89.6092 421.527 70.9831C423.461 25.9483 494.043 28.9507 516.281 56.9723C538.52 28.9507 609.102 25.9483 611.036 70.9831C611.836 89.6092 593.119 102.655 576.228 101.006C552.28 98.6691 541.42 67.9807 576.228 60.9753C539.486 46.9645 521.116 82.9923 546.255 104.009C571.394 125.025 606.201 111.119 617.804 92.1042C647.777 133.136 693.221 118.791 719.327 105.114C745.432 118.791 790.876 133.136 820.849 92.1042C832.452 111.119 867.26 125.025 892.399 104.009C917.538 82.9923 899.167 46.9645 862.425 60.9753C897.233 67.9807 886.373 98.6691 862.425 101.006C845.535 102.655 826.818 89.6092 827.618 70.9831C829.552 25.9483 900.134 28.9507 922.372 56.9723C944.611 28.9507 1015.19 25.9483 1017.13 70.9831C1017.93 89.6092 999.21 102.655 982.319 101.006C958.371 98.6691 947.511 67.9807 982.319 60.9753C945.577 46.9645 927.207 82.9923 952.346 104.009C977.485 125.025 1012.29 111.014 1023.89 91.9993C1053.87 133.031 1099.31 118.791 1125.42 105.114C1151.52 118.791 1196.97 133.136 1226.94 92.1042C1238.54 111.119 1273.35 125.025 1298.49 104.009C1323.63 82.9923 1305.26 46.9645 1268.52 60.9753C1303.32 67.9807 1292.46 98.6691 1268.52 101.006C1251.63 102.655 1232.91 89.6092 1233.71 70.9831C1235.64 25.9483 1306.23 28.9507 1328.46 56.9723C1350.7 28.9507 1421.28 25.9483 1423.22 70.9831C1424.02 89.6092 1405.3 102.655 1388.41 101.006C1364.46 98.6691 1353.6 67.9807 1388.41 60.9753C1351.67 46.9645 1333.3 82.9923 1358.44 104.009C1383.58 125.025 1418.38 111.119 1429.99 92.1042C1433.77 85.4996 1439.07 67.8468 1429.99 50.0718C1400.01 9.04014 1354.57 23.2796 1328.46 36.9568C1302.36 23.2796 1256.91 8.93521 1226.94 49.9669C1215.34 30.9522 1180.53 17.0463 1155.39 38.0625C1130.25 59.0787 1148.62 95.1065 1185.36 81.0957C1150.56 74.0903 1161.42 43.4019 1185.36 41.0648C1202.26 39.4165 1220.97 52.4618 1220.17 71.088C1218.24 116.123 1147.66 113.12 1125.42 85.0988C1103.18 113.12 1032.6 116.123 1030.66 71.088C1029.86 52.4618 1048.58 39.4165 1065.47 41.0648C1089.42 43.4019 1100.28 74.0903 1065.47 81.0957C1102.21 95.1065 1120.58 59.0787 1095.44 38.0625C1070.31 17.0463 1035.5 31.0571 1023.89 50.0718C993.921 9.04014 948.478 23.2796 922.372 36.9568C896.266 23.2796 850.823 8.93521 820.849 49.9669C809.247 30.9522 774.439 17.0463 749.3 38.0625C724.161 59.0787 742.532 95.1065 779.273 81.0957C744.466 74.0903 755.325 43.4019 779.273 41.0648C796.164 39.4165 814.881 52.4618 814.081 71.088C812.148 116.123 741.565 113.12 719.327 85.0988C697.088 113.12 626.506 116.123 624.572 71.088C623.773 52.4618 642.489 39.4165 659.38 41.0648C683.328 43.4019 694.188 74.0903 659.38 81.0957C696.122 95.1065 714.492 59.0787 689.353 38.0625C664.215 17.0463 629.407 31.0571 617.804 50.0718C587.831 9.04014 542.387 23.2796 516.281 36.9568C490.176 23.2796 444.732 8.93521 414.759 49.9669C403.156 30.9522 368.348 17.0463 343.209 38.0625C318.07 59.0787 336.441 95.1065 373.183 81.0957C338.375 74.0903 349.235 43.4019 373.183 41.0648C390.073 39.4165 408.79 52.4618 407.99 71.088C406.057 116.123 335.474 113.12 313.236 85.0988C290.998 113.12 220.415 116.123 218.482 71.088C217.682 52.4618 236.399 39.4165 253.289 41.0648C277.237 43.4019 288.097 74.0903 253.289 81.0957C290.031 95.1065 308.402 59.0787 283.263 38.0625C258.124 17.0463 223.316 30.9522 211.713 49.9669C181.74 8.93521 136.296 23.2796 110.191 36.9568C84.0848 23.2796 38.6413 8.93521 8.66788 49.9669C-1.5972 66.7119 4.39076 85.0355 8.66788 92.1042C20.2705 111.119 55.0781 125.025 80.217 104.009C105.356 82.9923 86.9852 46.9645 50.2437 60.9753C85.0514 67.9807 74.1916 98.6691 50.2437 101.006C33.353 102.655 14.6363 89.6092 15.4361 70.9831C17.3698 25.9483 87.9523 28.9507 110.191 56.9723ZM141.131 120.021C138.23 111.014 128.561 106.01 118.892 105.009C122.438 110.013 130.302 120.021 141.131 120.021ZM110.191 113.546C110.191 113.546 116.048 116.115 116.048 127.123C116.048 138.132 110.191 139.036 110.191 139.036C110.191 139.036 104.333 138.132 104.333 127.123C104.333 116.115 110.191 113.546 110.191 113.546ZM79.2502 120.021C82.1509 111.014 91.8198 106.01 101.489 105.009C97.9433 110.013 90.0793 120.021 79.2502 120.021ZM1359.4 120.021C1356.5 111.014 1346.83 106.01 1337.17 105.009C1340.71 110.013 1348.57 120.021 1359.4 120.021ZM1328.46 113.546C1328.46 113.546 1334.32 116.115 1334.32 127.123C1334.32 138.132 1328.46 139.036 1328.46 139.036C1328.46 139.036 1322.61 138.132 1322.61 127.123C1322.61 116.115 1328.46 113.546 1328.46 113.546ZM1297.52 120.021C1300.42 111.014 1310.09 106.01 1319.76 105.009C1316.22 110.013 1308.35 120.021 1297.52 120.021ZM1156.36 22.0502C1153.46 31.0571 1143.79 36.061 1134.12 37.0617C1137.67 32.0579 1145.53 22.0502 1156.36 22.0502ZM1125.42 28.5247C1125.42 28.5247 1131.27 25.9564 1131.27 14.9479C1131.27 3.93943 1125.42 3.03552 1125.42 3.03552C1125.42 3.03552 1119.56 3.93943 1119.56 14.9479C1119.56 25.9564 1125.42 28.5247 1125.42 28.5247ZM1094.48 22.0502C1097.38 31.0571 1107.05 36.061 1116.72 37.0617C1113.17 32.0579 1105.31 22.0502 1094.48 22.0502ZM953.313 120.021C950.412 111.014 940.743 106.01 931.074 105.009C934.62 110.013 942.483 120.021 953.313 120.021ZM922.372 113.546C922.372 113.546 928.229 116.115 928.229 127.123C928.229 138.132 922.372 139.036 922.372 139.036C922.372 139.036 916.515 138.132 916.515 127.123C916.515 116.115 922.372 113.546 922.372 113.546ZM891.432 120.021C894.333 111.014 904.001 106.01 913.67 105.009C910.125 110.013 902.261 120.021 891.432 120.021ZM750.267 22.0502C747.366 31.0571 737.698 36.061 728.029 37.0617C731.574 32.0579 739.438 22.0502 750.267 22.0502ZM719.327 28.5247C719.327 28.5247 725.184 25.9564 725.184 14.9479C725.184 3.93943 719.327 3.03552 719.327 3.03552C719.327 3.03552 713.47 3.93943 713.47 14.9479C713.47 25.9564 719.327 28.5247 719.327 28.5247ZM688.387 22.0502C691.287 31.0571 700.956 36.061 710.625 37.0617C707.079 32.0579 699.216 22.0502 688.387 22.0502ZM547.222 120.021C544.321 111.014 534.652 106.01 524.983 105.009C528.529 110.013 536.393 120.021 547.222 120.021ZM516.281 113.546C516.281 113.546 522.139 116.115 522.139 127.123C522.139 138.132 516.281 139.036 516.281 139.036C516.281 139.036 510.424 138.132 510.424 127.123C510.424 116.115 516.281 113.546 516.281 113.546ZM485.341 120.021C488.242 111.014 497.911 106.01 507.58 105.009C504.034 110.013 496.17 120.021 485.341 120.021ZM344.176 22.0502C341.276 31.0571 331.607 36.061 321.938 37.0617C325.483 32.0579 333.347 22.0502 344.176 22.0502ZM313.236 28.5247C313.236 28.5247 319.093 25.9564 319.093 14.9479C319.093 3.93943 313.236 3.03552 313.236 3.03552C313.236 3.03552 307.379 3.93943 307.379 14.9479C307.379 25.9564 313.236 28.5247 313.236 28.5247ZM282.296 22.0502C285.196 31.0571 294.865 36.061 304.534 37.0617C300.989 32.0579 293.125 22.0502 282.296 22.0502Z" stroke="#E0FFED" stroke-width="6"/>
</svg>
